<svg xmlns="http://www.w3.org/2000/svg" viewBox="0 0 100 100" width="500" height="500" class="illustration"><defs><style>.cls-1{fill:#3781f7;}.cls-1,.cls-2,.cls-7{stroke:#201d1d;}.cls-1,.cls-2,.cls-3,.cls-6,.cls-7{stroke-miterlimit:10;}.cls-1,.cls-2,.cls-3,.cls-4,.cls-5,.cls-6,.cls-7{stroke-width:1.5px;}.cls-2,.cls-6{fill:#fff;}.cls-3{fill:none;}.cls-3,.cls-4{stroke:#221f20;}.cls-4{fill:#f8d366;}.cls-4,.cls-5{stroke-linejoin:bevel;}.cls-5{fill:#f0457d;}.cls-5,.cls-6{stroke:#231f20;}.cls-7{fill:#f8d533;}</style></defs><g id="Layer_2" data-name="Layer 2"><path class="cls-1" d="M83.33,22.82v3.55H13.83V22.85a4.92,4.92,0,0,1,4.92-4.93H78.38A4.93,4.93,0,0,1,83.33,22.82Z"></path><path class="cls-2" d="M13.82,35.43v-6.1H83.33V71.86a4.4,4.4,0,0,1-4.39,4.4H18.21a4.39,4.39,0,0,1-4.39-4.4V42.8"></path><path class="cls-3" d="M18.21,76.26H78.94a4.4,4.4,0,0,0,4.39-4.4V29.33"></path><line class="cls-3" x1="17.26" y1="22.36" x2="21.12" y2="22.36"></line><line class="cls-3" x1="22.62" y1="22.36" x2="26.48" y2="22.36"></line><line class="cls-3" x1="27.98" y1="22.36" x2="31.84" y2="22.36"></line><polygon class="cls-4" points="78.56 41.26 78.56 69.56 18.58 69.56 18.58 41.26 21.86 38.31 75.27 38.31 78.56 41.26"></polygon><polygon class="cls-4" points="36.42 47.37 36.42 69.56 38.7 69.56 38.7 44.34 36.42 47.37"></polygon><path class="cls-5" d="M19.17,41.4H29a0,0,0,0,1,0,0v1.68a4.73,4.73,0,0,1-4.73,4.73H23.9a4.73,4.73,0,0,1-4.73-4.73V41.4a0,0,0,0,1,0,0Z"></path><path class="cls-6" d="M29,41.4h9.8a0,0,0,0,1,0,0v1.68A4.73,4.73,0,0,1,34,47.81H33.7A4.73,4.73,0,0,1,29,43.08V41.4a0,0,0,0,1,0,0Z"></path><path class="cls-5" d="M38.77,41.4h9.8a0,0,0,0,1,0,0v1.68a4.73,4.73,0,0,1-4.73,4.73H43.5a4.73,4.73,0,0,1-4.73-4.73V41.4A0,0,0,0,1,38.77,41.4Z"></path><path class="cls-6" d="M48.57,41.4h9.8a0,0,0,0,1,0,0v1.68a4.73,4.73,0,0,1-4.73,4.73H53.3a4.73,4.73,0,0,1-4.73-4.73V41.4A0,0,0,0,1,48.57,41.4Z"></path><path class="cls-5" d="M58.38,41.4h9.8a0,0,0,0,1,0,0v1.68a4.73,4.73,0,0,1-4.73,4.73h-.34a4.73,4.73,0,0,1-4.73-4.73V41.4A0,0,0,0,1,58.38,41.4Z"></path><path class="cls-6" d="M68.18,41.4H78a0,0,0,0,1,0,0v1.68a4.73,4.73,0,0,1-4.73,4.73h-.34a4.73,4.73,0,0,1-4.73-4.73V41.4A0,0,0,0,1,68.18,41.4Z"></path><polygon class="cls-5" points="78.56 40.79 78.56 41.05 18.58 41.05 18.58 40.77 21.86 35.17 75.27 35.17 78.56 40.79"></polygon><rect class="cls-4" x="38.7" y="55.96" width="39.64" height="1.82"></rect><path class="cls-7" d="M87.76,80.35l-7.38,5.47a2.54,2.54,0,0,1-2.93,0l-7.38-5.47a7.68,7.68,0,0,1-2.78-5.8V60H90.55V74.55A7.69,7.69,0,0,1,87.76,80.35Z"></path><path class="cls-3" d="M78.35,64.41h1.14a2.23,2.23,0,0,1,2.23,2.23v5.48a0,0,0,0,1,0,0H76.12a0,0,0,0,1,0,0V66.63A2.23,2.23,0,0,1,78.35,64.41Z"></path><rect class="cls-1" x="73.03" y="68.89" width="11.77" height="7.71"></rect></g></svg>